<?xml version="1.0" encoding="utf-8" ?>
<svg baseProfile="tiny" height="100%" version="1.2" width="100%" xmlns="http://www.w3.org/2000/svg" xmlns:ev="http://www.w3.org/2001/xml-events" xmlns:xlink="http://www.w3.org/1999/xlink"><defs /><rect fill="white" height="800" width="1000" x="0" y="0" /><line stroke="black" stroke-width="0.1" x1="0" x2="0" y1="0" y2="800" /><line stroke="black" stroke-width="0.1" x1="20" x2="20" y1="0" y2="800" /><line stroke="black" stroke-width="0.1" x1="40" x2="40" y1="0" y2="800" /><line stroke="black" stroke-width="0.1" x1="60" x2="60" y1="0" y2="800" /><line stroke="black" stroke-width="0.1" x1="80" x2="80" y1="0" y2="800" /><line stroke="black" stroke-width="0.1" x1="100" x2="100" y1="0" y2="800" /><line stroke="black" stroke-width="0.1" x1="120" x2="120" y1="0" y2="800" /><line stroke="black" stroke-width="0.1" x1="140" x2="140" y1="0" y2="800" /><line stroke="black" stroke-width="0.1" x1="160" x2="160" y1="0" y2="800" /><line stroke="black" stroke-width="0.1" x1="180" x2="180" y1="0" y2="800" /><line stroke="black" stroke-width="0.1" x1="200" x2="200" y1="0" y2="800" /><line stroke="black" stroke-width="0.1" x1="220" x2="220" y1="0" y2="800" /><line stroke="black" stroke-width="0.1" x1="240" x2="240" y1="0" y2="800" /><line stroke="black" stroke-width="0.1" x1="260" x2="260" y1="0" y2="800" /><line stroke="black" stroke-width="0.1" x1="280" x2="280" y1="0" y2="800" /><line stroke="black" stroke-width="0.1" x1="300" x2="300" y1="0" y2="800" /><line stroke="black" stroke-width="0.1" x1="320" x2="320" y1="0" y2="800" /><line stroke="black" stroke-width="0.1" x1="340" x2="340" y1="0" y2="800" /><line stroke="black" stroke-width="0.1" x1="360" x2="360" y1="0" y2="800" /><line stroke="black" stroke-width="0.1" x1="380" x2="380" y1="0" y2="800" /><line stroke="black" stroke-width="0.1" x1="400" x2="400" y1="0" y2="800" /><line stroke="black" stroke-width="0.1" x1="420" x2="420" y1="0" y2="800" /><line stroke="black" stroke-width="0.1" x1="440" x2="440" y1="0" y2="800" /><line stroke="black" stroke-width="0.1" x1="460" x2="460" y1="0" y2="800" /><line stroke="black" stroke-width="0.1" x1="480" x2="480" y1="0" y2="800" /><line stroke="black" stroke-width="0.1" x1="500" x2="500" y1="0" y2="800" /><line stroke="black" stroke-width="0.1" x1="520" x2="520" y1="0" y2="800" /><line stroke="black" stroke-width="0.1" x1="540" x2="540" y1="0" y2="800" /><line stroke="black" stroke-width="0.1" x1="560" x2="560" y1="0" y2="800" /><line stroke="black" stroke-width="0.1" x1="580" x2="580" y1="0" y2="800" /><line stroke="black" stroke-width="0.1" x1="600" x2="600" y1="0" y2="800" /><line stroke="black" stroke-width="0.1" x1="620" x2="620" y1="0" y2="800" /><line stroke="black" stroke-width="0.1" x1="640" x2="640" y1="0" y2="800" /><line stroke="black" stroke-width="0.1" x1="660" x2="660" y1="0" y2="800" /><line stroke="black" stroke-width="0.1" x1="680" x2="680" y1="0" y2="800" /><line stroke="black" stroke-width="0.1" x1="700" x2="700" y1="0" y2="800" /><line stroke="black" stroke-width="0.1" x1="720" x2="720" y1="0" y2="800" /><line stroke="black" stroke-width="0.1" x1="740" x2="740" y1="0" y2="800" /><line stroke="black" stroke-width="0.1" x1="760" x2="760" y1="0" y2="800" /><line stroke="black" stroke-width="0.1" x1="780" x2="780" y1="0" y2="800" /><line stroke="black" stroke-width="0.1" x1="800" x2="800" y1="0" y2="800" /><line stroke="black" stroke-width="0.1" x1="820" x2="820" y1="0" y2="800" /><line stroke="black" stroke-width="0.1" x1="840" x2="840" y1="0" y2="800" /><line stroke="black" stroke-width="0.1" x1="860" x2="860" y1="0" y2="800" /><line stroke="black" stroke-width="0.1" x1="880" x2="880" y1="0" y2="800" /><line stroke="black" stroke-width="0.1" x1="900" x2="900" y1="0" y2="800" /><line stroke="black" stroke-width="0.1" x1="920" x2="920" y1="0" y2="800" /><line stroke="black" stroke-width="0.1" x1="940" x2="940" y1="0" y2="800" /><line stroke="black" stroke-width="0.1" x1="960" x2="960" y1="0" y2="800" /><line stroke="black" stroke-width="0.1" x1="980" x2="980" y1="0" y2="800" /><rect fill="rgb(233,30,99)" fill-opacity="0.5" height="15.0943" rx="1" ry="1" width="0.4098" x="0.0" y="15.0943" /><rect fill="rgb(103,58,183)" fill-opacity="0.5" height="15.0943" rx="1" ry="1" width="0.4098" x="0.4098" y="75.4717" /><rect fill="rgb(63,81,181)" fill-opacity="0.5" height="15.0943" rx="1" ry="1" width="5.7377" x="0.8197" y="90.566" /><text font-size="4" x="0.819672131147541" y="94.33962264150942">'task_6' (14 s)</text><text font-size="4" x="0.819672131147541" y="98.11320754716981">2 s</text><text font-size="4" x="0.819672131147541" y="101.88679245283018">16 s</text><rect fill="rgb(33,150,243)" fill-opacity="0.5" height="15.0943" rx="1" ry="1" width="9.0164" x="6.5574" y="105.6604" /><text font-size="4" x="6.557377049180328" y="109.43396226415094">'task_7' (22 s)</text><text font-size="4" x="6.557377049180328" y="113.20754716981132">16 s</text><text font-size="4" x="6.557377049180328" y="116.98113207547169">38 s</text><rect fill="rgb(0,188,212)" fill-opacity="0.5" height="15.0943" rx="1" ry="1" width="0.4098" x="15.5738" y="135.8491" /><rect fill="rgb(96,125,139)" fill-opacity="0.5" height="15.0943" rx="1" ry="1" width="0.4098" x="15.9836" y="392.4528" /><rect fill="rgb(233,30,99)" fill-opacity="0.5" height="15.0943" rx="1" ry="1" width="4.0984" x="16.3934" y="513.2075" /><text font-size="4" x="16.393442622950822" y="516.9811320754717">'task_87' (10 s)</text><text font-size="4" x="16.393442622950822" y="520.754716981132">40 s</text><text font-size="4" x="16.393442622950822" y="524.5283018867924">50 s</text><rect fill="rgb(76,175,80)" fill-opacity="0.5" height="15.0943" rx="1" ry="1" width="0.4098" x="20.4918" y="498.1132" /><rect fill="rgb(255,87,34)" fill-opacity="0.5" height="15.0943" rx="1" ry="1" width="7.7869" x="20.9016" y="633.9623" /><text font-size="4" x="20.901639344262296" y="637.7358490566038">'task_201' (19 s)</text><text font-size="4" x="20.901639344262296" y="641.5094339622641">51 s</text><text font-size="4" x="20.901639344262296" y="645.2830188679245">70 s</text><rect fill="rgb(158,158,158)" fill-opacity="0.5" height="15.0943" rx="1" ry="1" width="12.2951" x="28.6885" y="694.3396" /><text font-size="4" x="28.688524590163937" y="698.1132075471698">'task_205' (30 s)</text><text font-size="4" x="28.688524590163937" y="701.8867924528302">70 s</text><text font-size="4" x="28.688524590163937" y="705.6603773584906">100 s</text><rect fill="rgb(244,67,54)" fill-opacity="0.5" height="15.0943" rx="1" ry="1" width="86.4754" x="40.9836" y="724.5283" /><text font-size="4" x="40.98360655737705" y="728.3018867924528">'task_207' (211 s)</text><text font-size="4" x="40.98360655737705" y="732.0754716981131">100 s</text><text font-size="4" x="40.98360655737705" y="735.8490566037735">311 s</text><rect fill="rgb(156,39,176)" fill-opacity="0.5" height="15.0943" rx="1" ry="1" width="8.6066" x="127.459" y="60.3774" /><text font-size="4" x="127.45901639344262" y="64.15094339622641">'task_216' (21 s)</text><text font-size="4" x="127.45901639344262" y="67.9245283018868">311 s</text><text font-size="4" x="127.45901639344262" y="71.69811320754717">332 s</text><rect fill="rgb(63,81,181)" fill-opacity="0.5" height="15.0943" rx="1" ry="1" width="115.1639" x="136.0656" y="150.9434" /><text font-size="4" x="136.0655737704918" y="154.7169811320755">'task_222' (281 s)</text><text font-size="4" x="136.0655737704918" y="158.49056603773585">332 s</text><text font-size="4" x="136.0655737704918" y="162.26415094339623">613 s</text><rect fill="rgb(3,169,244)" fill-opacity="0.5" height="15.0943" rx="1" ry="1" width="8.1967" x="251.2295" y="286.7925" /><text font-size="4" x="251.22950819672133" y="290.566037735849">'task_231' (20 s)</text><text font-size="4" x="251.22950819672133" y="294.33962264150944">613 s</text><text font-size="4" x="251.22950819672133" y="298.1132075471698">633 s</text><rect fill="rgb(76,175,80)" fill-opacity="0.5" height="15.0943" rx="1" ry="1" width="115.1639" x="259.4262" y="377.3585" /><text font-size="4" x="259.42622950819674" y="381.1320754716981">'task_237' (281 s)</text><text font-size="4" x="259.42622950819674" y="384.9056603773585">633 s</text><text font-size="4" x="259.42622950819674" y="388.6792452830189">914 s</text><rect fill="rgb(205,220,57)" fill-opacity="0.5" height="15.0943" rx="1" ry="1" width="8.6066" x="374.5902" y="513.2075" /><text font-size="4" x="374.59016393442624" y="516.9811320754717">'task_246' (21 s)</text><text font-size="4" x="374.59016393442624" y="520.754716981132">914 s</text><text font-size="4" x="374.59016393442624" y="524.5283018867924">935 s</text><rect fill="rgb(255,193,7)" fill-opacity="0.5" height="15.0943" rx="1" ry="1" width="115.1639" x="383.1967" y="603.7736" /><text font-size="4" x="383.1967213114754" y="607.5471698113208">'task_252' (281 s)</text><text font-size="4" x="383.1967213114754" y="611.3207547169811">935 s</text><text font-size="4" x="383.1967213114754" y="615.0943396226415">1216 s</text><rect fill="rgb(3,169,244)" fill-opacity="0.5" height="15.0943" rx="1" ry="1" width="8.1967" x="498.3607" y="739.6226" /><text font-size="4" x="498.3606557377049" y="743.3962264150944">'task_261' (20 s)</text><text font-size="4" x="498.3606557377049" y="747.1698113207547">1216 s</text><text font-size="4" x="498.3606557377049" y="750.9433962264151">1236 s</text><rect fill="rgb(139,195,74)" fill-opacity="0.5" height="15.0943" rx="1" ry="1" width="112.2951" x="506.5574" y="30.1887" /><text font-size="4" x="506.55737704918033" y="33.9622641509434">'task_267' (274 s)</text><text font-size="4" x="506.55737704918033" y="37.735849056603776">1236 s</text><text font-size="4" x="506.55737704918033" y="41.509433962264154">1510 s</text><rect fill="rgb(121,85,72)" fill-opacity="0.5" height="15.0943" rx="1" ry="1" width="0.4098" x="618.8525" y="256.6038" /><rect fill="rgb(158,158,158)" fill-opacity="0.5" height="15.0943" rx="1" ry="1" width="1.2295" x="619.2623" y="271.6981" /><rect fill="rgb(96,125,139)" fill-opacity="0.5" height="15.0943" rx="1" ry="1" width="0.8197" x="620.4918" y="286.7925" /><rect fill="rgb(244,67,54)" fill-opacity="0.5" height="15.0943" rx="1" ry="1" width="1.2295" x="621.3115" y="301.8868" /><rect fill="rgb(156,39,176)" fill-opacity="0.5" height="15.0943" rx="1" ry="1" width="0.4098" x="622.541" y="377.3585" /><rect fill="rgb(33,150,243)" fill-opacity="0.5" height="15.0943" rx="1" ry="1" width="0.8197" x="622.9508" y="603.7736" /><rect fill="rgb(3,169,244)" fill-opacity="0.5" height="15.0943" rx="1" ry="1" width="0.4098" x="623.7705" y="618.8679" /><rect fill="rgb(0,188,212)" fill-opacity="0.5" height="15.0943" rx="1" ry="1" width="2.0492" x="624.1803" y="633.9623" /><text font-size="4" x="624.1803278688525" y="637.7358490566038">'task_307' (5 s)</text><text font-size="4" x="624.1803278688525" y="641.5094339622641">1523 s</text><text font-size="4" x="624.1803278688525" y="645.2830188679245">1528 s</text><rect fill="rgb(0,150,136)" fill-opacity="0.5" height="15.0943" rx="1" ry="1" width="0.4098" x="626.2295" y="649.0566" /><rect fill="rgb(76,175,80)" fill-opacity="0.5" height="15.0943" rx="1" ry="1" width="0.4098" x="626.6393" y="709.434" /><rect fill="rgb(139,195,74)" fill-opacity="0.5" height="15.0943" rx="1" ry="1" width="0.8197" x="627.0492" y="30.1887" /><rect fill="rgb(205,220,57)" fill-opacity="0.5" height="15.0943" rx="1" ry="1" width="2.0492" x="627.8689" y="60.3774" /><text font-size="4" x="627.8688524590165" y="64.15094339622641">'task_322' (5 s)</text><text font-size="4" x="627.8688524590165" y="67.9245283018868">1532 s</text><text font-size="4" x="627.8688524590165" y="71.69811320754717">1537 s</text><rect fill="rgb(255,235,59)" fill-opacity="0.5" height="15.0943" rx="1" ry="1" width="0.8197" x="629.918" y="75.4717" /><rect fill="rgb(255,193,7)" fill-opacity="0.5" height="15.0943" rx="1" ry="1" width="0.4098" x="630.7377" y="90.566" /><rect fill="rgb(255,152,0)" fill-opacity="0.5" height="15.0943" rx="1" ry="1" width="4.0984" x="631.1475" y="150.9434" /><text font-size="4" x="631.1475409836065" y="154.7169811320755">'task_328' (10 s)</text><text font-size="4" x="631.1475409836065" y="158.49056603773585">1540 s</text><text font-size="4" x="631.1475409836065" y="162.26415094339623">1550 s</text><rect fill="rgb(121,85,72)" fill-opacity="0.5" height="15.0943" rx="1" ry="1" width="1.6393" x="635.2459" y="166.0377" /><rect fill="rgb(103,58,183)" fill-opacity="0.5" height="15.0943" rx="1" ry="1" width="0.4098" x="636.8852" y="739.6226" /><rect fill="rgb(33,150,243)" fill-opacity="0.5" height="15.0943" rx="1" ry="1" width="0.4098" x="637.2951" y="90.566" /><rect fill="rgb(0,188,212)" fill-opacity="0.5" height="15.0943" rx="1" ry="1" width="9.8361" x="637.7049" y="150.9434" /><text font-size="4" x="637.7049180327868" y="154.7169811320755">'task_487' (24 s)</text><text font-size="4" x="637.7049180327868" y="158.49056603773585">1556 s</text><text font-size="4" x="637.7049180327868" y="162.26415094339623">1580 s</text><rect fill="rgb(0,150,136)" fill-opacity="0.5" height="15.0943" rx="1" ry="1" width="16.3934" x="647.541" y="211.3208" /><text font-size="4" x="647.5409836065573" y="215.0943396226415">'task_491' (40 s)</text><text font-size="4" x="647.5409836065573" y="218.86792452830187">1580 s</text><text font-size="4" x="647.5409836065573" y="222.64150943396226">1620 s</text><rect fill="rgb(139,195,74)" fill-opacity="0.5" height="15.0943" rx="1" ry="1" width="78.2787" x="663.9344" y="241.5094" /><text font-size="4" x="663.9344262295082" y="245.28301886792454">'task_493' (191 s)</text><text font-size="4" x="663.9344262295082" y="249.0566037735849">1620 s</text><text font-size="4" x="663.9344262295082" y="252.83018867924528">1811 s</text><rect fill="rgb(255,235,59)" fill-opacity="0.5" height="15.0943" rx="1" ry="1" width="8.1967" x="742.2131" y="422.6415" /><text font-size="4" x="742.2131147540983" y="426.4150943396226">'task_505' (20 s)</text><text font-size="4" x="742.2131147540983" y="430.188679245283">1811 s</text><text font-size="4" x="742.2131147540983" y="433.9622641509434">1831 s</text><rect fill="rgb(255,152,0)" fill-opacity="0.5" height="15.0943" rx="1" ry="1" width="6.9672" x="750.4098" y="483.0189" /><text font-size="4" x="750.4098360655738" y="486.79245283018867">'task_509' (17 s)</text><text font-size="4" x="750.4098360655738" y="490.5660377358491">1831 s</text><text font-size="4" x="750.4098360655738" y="494.33962264150944">1848 s</text><rect fill="rgb(244,67,54)" fill-opacity="0.5" height="15.0943" rx="1" ry="1" width="1.6393" x="757.377" y="528.3019" /><rect fill="rgb(156,39,176)" fill-opacity="0.5" height="15.0943" rx="1" ry="1" width="8.6066" x="759.0164" y="558.4906" /><text font-size="4" x="759.016393442623" y="562.2641509433963">'task_514' (21 s)</text><text font-size="4" x="759.016393442623" y="566.0377358490566">1852 s</text><text font-size="4" x="759.016393442623" y="569.811320754717">1873 s</text><rect fill="rgb(0,150,136)" fill-opacity="0.5" height="15.0943" rx="1" ry="1" width="3.6885" x="767.623" y="603.7736" /><text font-size="4" x="767.6229508196722" y="607.5471698113208">'task_517' (9 s)</text><text font-size="4" x="767.6229508196722" y="611.3207547169811">1873 s</text><text font-size="4" x="767.6229508196722" y="615.0943396226415">1882 s</text><rect fill="rgb(205,220,57)" fill-opacity="0.5" height="15.0943" rx="1" ry="1" width="34.8361" x="771.3115" y="618.8679" /><text font-size="4" x="771.3114754098361" y="622.6415094339623">'task_518' (85 s)</text><text font-size="4" x="771.3114754098361" y="626.4150943396226">1882 s</text><text font-size="4" x="771.3114754098361" y="630.188679245283">1967 s</text><rect fill="rgb(255,235,59)" fill-opacity="0.5" height="15.0943" rx="1" ry="1" width="8.6066" x="806.1475" y="649.0566" /><text font-size="4" x="806.1475409836066" y="652.8301886792453">'task_520' (21 s)</text><text font-size="4" x="806.1475409836066" y="656.6037735849056">1967 s</text><text font-size="4" x="806.1475409836066" y="660.377358490566">1988 s</text><rect fill="rgb(255,193,7)" fill-opacity="0.5" height="15.0943" rx="1" ry="1" width="9.0164" x="814.7541" y="709.434" /><text font-size="4" x="814.7540983606558" y="713.2075471698114">'task_524' (22 s)</text><text font-size="4" x="814.7540983606558" y="716.9811320754717">1988 s</text><text font-size="4" x="814.7540983606558" y="720.7547169811321">2010 s</text><rect fill="rgb(255,152,0)" fill-opacity="0.5" height="15.0943" rx="1" ry="1" width="44.2623" x="823.7705" y="769.8113" /><text font-size="4" x="823.7704918032787" y="773.5849056603774">'task_528' (108 s)</text><text font-size="4" x="823.7704918032787" y="777.3584905660377">2010 s</text><text font-size="4" x="823.7704918032787" y="781.1320754716982">2118 s</text><rect fill="rgb(255,87,34)" fill-opacity="0.5" height="15.0943" rx="1" ry="1" width="8.1967" x="868.0328" y="105.6604" /><text font-size="4" x="868.032786885246" y="109.43396226415094">'task_537' (20 s)</text><text font-size="4" x="868.032786885246" y="113.20754716981132">2118 s</text><text font-size="4" x="868.032786885246" y="116.98113207547169">2138 s</text><rect fill="rgb(233,30,99)" fill-opacity="0.5" height="15.0943" rx="1" ry="1" width="115.1639" x="876.2295" y="196.2264" /><text font-size="4" x="876.2295081967213" y="200.0">'task_543' (281 s)</text><text font-size="4" x="876.2295081967213" y="203.77358490566036">2138 s</text><text font-size="4" x="876.2295081967213" y="207.54716981132074">2419 s</text><rect fill="rgb(103,58,183)" fill-opacity="0.5" height="15.0943" rx="1" ry="1" width="8.1967" x="991.3934" y="332.0755" /><text font-size="4" x="991.3934426229508" y="335.8490566037736">'task_552' (20 s)</text><text font-size="4" x="991.3934426229508" y="339.622641509434">2419 s</text><text font-size="4" x="991.3934426229508" y="343.39622641509436">2439 s</text><rect fill="rgb(63,81,181)" fill-opacity="0.5" height="15.0943" rx="1" ry="1" width="0.4098" x="999.5902" y="347.1698" /><rect fill="white" height="20" width="1000" x="0" y="800" /><text font-size="4" x="0" y="810.0">      0.00</text><text font-size="4" x="20" y="810.0">     48.80</text><text font-size="4" x="40" y="810.0">     97.60</text><text font-size="4" x="60" y="810.0">    146.40</text><text font-size="4" x="80" y="810.0">    195.20</text><text font-size="4" x="100" y="810.0">    244.00</text><text font-size="4" x="120" y="810.0">    292.80</text><text font-size="4" x="140" y="810.0">    341.60</text><text font-size="4" x="160" y="810.0">    390.40</text><text font-size="4" x="180" y="810.0">    439.20</text><text font-size="4" x="200" y="810.0">    488.00</text><text font-size="4" x="220" y="810.0">    536.80</text><text font-size="4" x="240" y="810.0">    585.60</text><text font-size="4" x="260" y="810.0">    634.40</text><text font-size="4" x="280" y="810.0">    683.20</text><text font-size="4" x="300" y="810.0">    732.00</text><text font-size="4" x="320" y="810.0">    780.80</text><text font-size="4" x="340" y="810.0">    829.60</text><text font-size="4" x="360" y="810.0">    878.40</text><text font-size="4" x="380" y="810.0">    927.20</text><text font-size="4" x="400" y="810.0">    976.00</text><text font-size="4" x="420" y="810.0">   1024.80</text><text font-size="4" x="440" y="810.0">   1073.60</text><text font-size="4" x="460" y="810.0">   1122.40</text><text font-size="4" x="480" y="810.0">   1171.20</text><text font-size="4" x="500" y="810.0">   1220.00</text><text font-size="4" x="520" y="810.0">   1268.80</text><text font-size="4" x="540" y="810.0">   1317.60</text><text font-size="4" x="560" y="810.0">   1366.40</text><text font-size="4" x="580" y="810.0">   1415.20</text><text font-size="4" x="600" y="810.0">   1464.00</text><text font-size="4" x="620" y="810.0">   1512.80</text><text font-size="4" x="640" y="810.0">   1561.60</text><text font-size="4" x="660" y="810.0">   1610.40</text><text font-size="4" x="680" y="810.0">   1659.20</text><text font-size="4" x="700" y="810.0">   1708.00</text><text font-size="4" x="720" y="810.0">   1756.80</text><text font-size="4" x="740" y="810.0">   1805.60</text><text font-size="4" x="760" y="810.0">   1854.40</text><text font-size="4" x="780" y="810.0">   1903.20</text><text font-size="4" x="800" y="810.0">   1952.00</text><text font-size="4" x="820" y="810.0">   2000.80</text><text font-size="4" x="840" y="810.0">   2049.60</text><text font-size="4" x="860" y="810.0">   2098.40</text><text font-size="4" x="880" y="810.0">   2147.20</text><text font-size="4" x="900" y="810.0">   2196.00</text><text font-size="4" x="920" y="810.0">   2244.80</text><text font-size="4" x="940" y="810.0">   2293.60</text><text font-size="4" x="960" y="810.0">   2342.40</text><text font-size="4" x="980" y="810.0">   2391.20</text></svg>